<?xml version="1.0" encoding="UTF-8"?>
<svg xmlns="http://www.w3.org/2000/svg" xmlns:xlink="http://www.w3.org/1999/xlink" width="756pt" height="504pt" viewBox="0 0 756 504" version="1.1">
<g id="surface84">
<rect x="0" y="0" width="756" height="504" style="fill:rgb(100%,100%,100%);fill-opacity:1;stroke:none;"/>
<path style=" stroke:none;fill-rule:nonzero;fill:rgb(18.431373%,30.980392%,30.980392%);fill-opacity:0.501961;" d="M 23.234375 492.222656 L 46.496094 492.222656 L 46.496094 433.625 L 23.234375 433.625 Z M 23.234375 492.222656 "/>
<path style=" stroke:none;fill-rule:nonzero;fill:rgb(18.431373%,30.980392%,30.980392%);fill-opacity:0.501961;" d="M 46.496094 492.222656 L 69.757813 492.222656 L 69.757813 433.625 L 46.496094 433.625 Z M 46.496094 492.222656 "/>
<path style=" stroke:none;fill-rule:nonzero;fill:rgb(18.431373%,30.980392%,30.980392%);fill-opacity:0.501961;" d="M 69.757813 492.222656 L 93.019531 492.222656 L 93.019531 433.625 L 69.757813 433.625 Z M 69.757813 492.222656 "/>
<path style=" stroke:none;fill-rule:nonzero;fill:rgb(18.431373%,30.980392%,30.980392%);fill-opacity:0.501961;" d="M 93.019531 492.222656 L 116.28125 492.222656 L 116.28125 433.625 L 93.019531 433.625 Z M 93.019531 492.222656 "/>
<path style=" stroke:none;fill-rule:nonzero;fill:rgb(18.431373%,30.980392%,30.980392%);fill-opacity:0.501961;" d="M 116.28125 492.222656 L 139.542969 492.222656 L 139.542969 375.027344 L 116.28125 375.027344 Z M 116.28125 492.222656 "/>
<path style=" stroke:none;fill-rule:nonzero;fill:rgb(18.431373%,30.980392%,30.980392%);fill-opacity:0.501961;" d="M 162.808594 492.222656 L 186.070313 492.222656 L 186.070313 433.625 L 162.808594 433.625 Z M 162.808594 492.222656 "/>
<path style=" stroke:none;fill-rule:nonzero;fill:rgb(18.431373%,30.980392%,30.980392%);fill-opacity:0.501961;" d="M 186.070313 492.222656 L 209.332031 492.222656 L 209.332031 257.832031 L 186.070313 257.832031 Z M 186.070313 492.222656 "/>
<path style=" stroke:none;fill-rule:nonzero;fill:rgb(18.431373%,30.980392%,30.980392%);fill-opacity:0.501961;" d="M 209.332031 492.222656 L 232.59375 492.222656 L 232.59375 433.625 L 209.332031 433.625 Z M 209.332031 492.222656 "/>
<path style=" stroke:none;fill-rule:nonzero;fill:rgb(18.431373%,30.980392%,30.980392%);fill-opacity:0.501961;" d="M 232.59375 492.222656 L 255.855469 492.222656 L 255.855469 199.234375 L 232.59375 199.234375 Z M 232.59375 492.222656 "/>
<path style=" stroke:none;fill-rule:nonzero;fill:rgb(18.431373%,30.980392%,30.980392%);fill-opacity:0.501961;" d="M 255.859375 492.222656 L 279.121094 492.222656 L 279.121094 375.027344 L 255.859375 375.027344 Z M 255.859375 492.222656 "/>
<path style=" stroke:none;fill-rule:nonzero;fill:rgb(18.431373%,30.980392%,30.980392%);fill-opacity:0.501961;" d="M 279.121094 492.222656 L 302.382813 492.222656 L 302.382813 82.039063 L 279.121094 82.039063 Z M 279.121094 492.222656 "/>
<path style=" stroke:none;fill-rule:nonzero;fill:rgb(18.431373%,30.980392%,30.980392%);fill-opacity:0.501961;" d="M 302.382813 492.222656 L 325.644531 492.222656 L 325.644531 82.039063 L 302.382813 82.039063 Z M 302.382813 492.222656 "/>
<path style=" stroke:none;fill-rule:nonzero;fill:rgb(18.431373%,30.980392%,30.980392%);fill-opacity:0.501961;" d="M 325.644531 492.222656 L 348.90625 492.222656 L 348.90625 199.234375 L 325.644531 199.234375 Z M 325.644531 492.222656 "/>
<path style=" stroke:none;fill-rule:nonzero;fill:rgb(18.431373%,30.980392%,30.980392%);fill-opacity:0.501961;" d="M 348.90625 492.222656 L 372.167969 492.222656 L 372.167969 199.234375 L 348.90625 199.234375 Z M 348.90625 492.222656 "/>
<path style=" stroke:none;fill-rule:nonzero;fill:rgb(18.431373%,30.980392%,30.980392%);fill-opacity:0.501961;" d="M 372.167969 492.222656 L 395.429688 492.222656 L 395.429688 23.441406 L 372.167969 23.441406 Z M 372.167969 492.222656 "/>
<path style=" stroke:none;fill-rule:nonzero;fill:rgb(18.431373%,30.980392%,30.980392%);fill-opacity:0.501961;" d="M 395.433594 492.222656 L 418.695313 492.222656 L 418.695313 199.234375 L 395.433594 199.234375 Z M 395.433594 492.222656 "/>
<path style=" stroke:none;fill-rule:nonzero;fill:rgb(18.431373%,30.980392%,30.980392%);fill-opacity:0.501961;" d="M 418.695313 492.222656 L 441.957031 492.222656 L 441.957031 140.636719 L 418.695313 140.636719 Z M 418.695313 492.222656 "/>
<path style=" stroke:none;fill-rule:nonzero;fill:rgb(18.431373%,30.980392%,30.980392%);fill-opacity:0.501961;" d="M 441.957031 492.222656 L 465.21875 492.222656 L 465.21875 82.039063 L 441.957031 82.039063 Z M 441.957031 492.222656 "/>
<path style=" stroke:none;fill-rule:nonzero;fill:rgb(18.431373%,30.980392%,30.980392%);fill-opacity:0.501961;" d="M 465.21875 492.222656 L 488.480469 492.222656 L 488.480469 199.234375 L 465.21875 199.234375 Z M 465.21875 492.222656 "/>
<path style=" stroke:none;fill-rule:nonzero;fill:rgb(18.431373%,30.980392%,30.980392%);fill-opacity:0.501961;" d="M 488.480469 492.222656 L 511.742188 492.222656 L 511.742188 82.039063 L 488.480469 82.039063 Z M 488.480469 492.222656 "/>
<path style=" stroke:none;fill-rule:nonzero;fill:rgb(18.431373%,30.980392%,30.980392%);fill-opacity:0.501961;" d="M 511.746094 492.222656 L 535.007813 492.222656 L 535.007813 257.832031 L 511.746094 257.832031 Z M 511.746094 492.222656 "/>
<path style=" stroke:none;fill-rule:nonzero;fill:rgb(18.431373%,30.980392%,30.980392%);fill-opacity:0.501961;" d="M 535.007813 492.222656 L 558.269531 492.222656 L 558.269531 257.832031 L 535.007813 257.832031 Z M 535.007813 492.222656 "/>
<path style=" stroke:none;fill-rule:nonzero;fill:rgb(18.431373%,30.980392%,30.980392%);fill-opacity:0.501961;" d="M 558.269531 492.222656 L 581.53125 492.222656 L 581.53125 199.234375 L 558.269531 199.234375 Z M 558.269531 492.222656 "/>
<path style=" stroke:none;fill-rule:nonzero;fill:rgb(18.431373%,30.980392%,30.980392%);fill-opacity:0.501961;" d="M 581.53125 492.222656 L 604.792969 492.222656 L 604.792969 375.027344 L 581.53125 375.027344 Z M 581.53125 492.222656 "/>
<path style=" stroke:none;fill-rule:nonzero;fill:rgb(18.431373%,30.980392%,30.980392%);fill-opacity:0.501961;" d="M 628.054688 492.222656 L 651.316406 492.222656 L 651.316406 316.429688 L 628.054688 316.429688 Z M 628.054688 492.222656 "/>
<path style=" stroke:none;fill-rule:nonzero;fill:rgb(18.431373%,30.980392%,30.980392%);fill-opacity:0.501961;" d="M 697.84375 492.222656 L 721.105469 492.222656 L 721.105469 433.625 L 697.84375 433.625 Z M 697.84375 492.222656 "/>
<path style="fill:none;stroke-width:4.267913;stroke-linecap:butt;stroke-linejoin:round;stroke:rgb(18.431373%,30.980392%,30.980392%);stroke-opacity:1;stroke-miterlimit:10;" d="M 388.433594 504 L 388.433594 0 "/>
</g>
</svg>
