<?xml version="1.0" encoding="UTF-8"?>
<svg xmlns="http://www.w3.org/2000/svg" xmlns:xlink="http://www.w3.org/1999/xlink" width="756pt" height="504pt" viewBox="0 0 756 504" version="1.1">
<g id="surface184">
<rect x="0" y="0" width="756" height="504" style="fill:rgb(100%,100%,100%);fill-opacity:1;stroke:none;"/>
<path style="fill-rule:nonzero;fill:rgb(18.431373%,30.980392%,30.980392%);fill-opacity:1;stroke-width:0.708661;stroke-linecap:round;stroke-linejoin:round;stroke:rgb(18.431373%,30.980392%,30.980392%);stroke-opacity:1;stroke-miterlimit:10;" d="M 34.257813 492.222656 C 34.257813 498.308594 29.320313 503.246094 23.234375 503.246094 C 17.144531 503.246094 12.210938 498.308594 12.210938 492.222656 C 12.210938 486.132813 17.144531 481.195313 23.234375 481.195313 C 29.320313 481.195313 34.257813 486.132813 34.257813 492.222656 "/>
<path style="fill-rule:nonzero;fill:rgb(18.431373%,30.980392%,30.980392%);fill-opacity:1;stroke-width:0.708661;stroke-linecap:round;stroke-linejoin:round;stroke:rgb(18.431373%,30.980392%,30.980392%);stroke-opacity:1;stroke-miterlimit:10;" d="M 111.800781 492.222656 C 111.800781 498.308594 106.863281 503.246094 100.773438 503.246094 C 94.6875 503.246094 89.75 498.308594 89.75 492.222656 C 89.75 486.132813 94.6875 481.195313 100.773438 481.195313 C 106.863281 481.195313 111.800781 486.132813 111.800781 492.222656 "/>
<path style="fill-rule:nonzero;fill:rgb(18.431373%,30.980392%,30.980392%);fill-opacity:1;stroke-width:0.708661;stroke-linecap:round;stroke-linejoin:round;stroke:rgb(18.431373%,30.980392%,30.980392%);stroke-opacity:1;stroke-miterlimit:10;" d="M 189.339844 492.222656 C 189.339844 498.308594 184.40625 503.246094 178.316406 503.246094 C 172.226563 503.246094 167.292969 498.308594 167.292969 492.222656 C 167.292969 486.132813 172.226563 481.195313 178.316406 481.195313 C 184.40625 481.195313 189.339844 486.132813 189.339844 492.222656 "/>
<path style="fill-rule:nonzero;fill:rgb(18.431373%,30.980392%,30.980392%);fill-opacity:1;stroke-width:0.708661;stroke-linecap:round;stroke-linejoin:round;stroke:rgb(18.431373%,30.980392%,30.980392%);stroke-opacity:1;stroke-miterlimit:10;" d="M 266.882813 492.222656 C 266.882813 498.308594 261.945313 503.246094 255.859375 503.246094 C 249.769531 503.246094 244.832031 498.308594 244.832031 492.222656 C 244.832031 486.132813 249.769531 481.195313 255.859375 481.195313 C 261.945313 481.195313 266.882813 486.132813 266.882813 492.222656 "/>
<path style="fill-rule:nonzero;fill:rgb(18.431373%,30.980392%,30.980392%);fill-opacity:1;stroke-width:0.708661;stroke-linecap:round;stroke-linejoin:round;stroke:rgb(18.431373%,30.980392%,30.980392%);stroke-opacity:1;stroke-miterlimit:10;" d="M 344.421875 492.222656 C 344.421875 498.308594 339.488281 503.246094 333.398438 503.246094 C 327.3125 503.246094 322.375 498.308594 322.375 492.222656 C 322.375 486.132813 327.3125 481.195313 333.398438 481.195313 C 339.488281 481.195313 344.421875 486.132813 344.421875 492.222656 "/>
<path style="fill-rule:nonzero;fill:rgb(18.431373%,30.980392%,30.980392%);fill-opacity:1;stroke-width:0.708661;stroke-linecap:round;stroke-linejoin:round;stroke:rgb(18.431373%,30.980392%,30.980392%);stroke-opacity:1;stroke-miterlimit:10;" d="M 421.964844 492.222656 C 421.964844 498.308594 417.027344 503.246094 410.941406 503.246094 C 404.851563 503.246094 399.917969 498.308594 399.917969 492.222656 C 399.917969 486.132813 404.851563 481.195313 410.941406 481.195313 C 417.027344 481.195313 421.964844 486.132813 421.964844 492.222656 "/>
<path style="fill-rule:nonzero;fill:rgb(18.431373%,30.980392%,30.980392%);fill-opacity:1;stroke-width:0.708661;stroke-linecap:round;stroke-linejoin:round;stroke:rgb(18.431373%,30.980392%,30.980392%);stroke-opacity:1;stroke-miterlimit:10;" d="M 499.507813 492.222656 C 499.507813 498.308594 494.570313 503.246094 488.480469 503.246094 C 482.394531 503.246094 477.457031 498.308594 477.457031 492.222656 C 477.457031 486.132813 482.394531 481.195313 488.480469 481.195313 C 494.570313 481.195313 499.507813 486.132813 499.507813 492.222656 "/>
<path style="fill-rule:nonzero;fill:rgb(18.431373%,30.980392%,30.980392%);fill-opacity:1;stroke-width:0.708661;stroke-linecap:round;stroke-linejoin:round;stroke:rgb(18.431373%,30.980392%,30.980392%);stroke-opacity:1;stroke-miterlimit:10;" d="M 577.046875 492.222656 C 577.046875 498.308594 572.113281 503.246094 566.023438 503.246094 C 559.933594 503.246094 555 498.308594 555 492.222656 C 555 486.132813 559.933594 481.195313 566.023438 481.195313 C 572.113281 481.195313 577.046875 486.132813 577.046875 492.222656 "/>
<path style="fill-rule:nonzero;fill:rgb(18.431373%,30.980392%,30.980392%);fill-opacity:1;stroke-width:0.708661;stroke-linecap:round;stroke-linejoin:round;stroke:rgb(18.431373%,30.980392%,30.980392%);stroke-opacity:1;stroke-miterlimit:10;" d="M 654.589844 492.222656 C 654.589844 498.308594 649.652344 503.246094 643.566406 503.246094 C 637.476563 503.246094 632.539063 498.308594 632.539063 492.222656 C 632.539063 486.132813 637.476563 481.195313 643.566406 481.195313 C 649.652344 481.195313 654.589844 486.132813 654.589844 492.222656 "/>
<path style="fill-rule:nonzero;fill:rgb(18.431373%,30.980392%,30.980392%);fill-opacity:1;stroke-width:0.708661;stroke-linecap:round;stroke-linejoin:round;stroke:rgb(18.431373%,30.980392%,30.980392%);stroke-opacity:1;stroke-miterlimit:10;" d="M 732.128906 492.222656 C 732.128906 498.308594 727.195313 503.246094 721.105469 503.246094 C 715.019531 503.246094 710.082031 498.308594 710.082031 492.222656 C 710.082031 486.132813 715.019531 481.195313 721.105469 481.195313 C 727.195313 481.195313 732.128906 486.132813 732.128906 492.222656 "/>
<path style="fill-rule:nonzero;fill:rgb(18.431373%,30.980392%,30.980392%);fill-opacity:1;stroke-width:0.708661;stroke-linecap:round;stroke-linejoin:round;stroke:rgb(18.431373%,30.980392%,30.980392%);stroke-opacity:1;stroke-miterlimit:10;" d="M 34.257813 440.132813 C 34.257813 446.222656 29.320313 451.160156 23.234375 451.160156 C 17.144531 451.160156 12.210938 446.222656 12.210938 440.132813 C 12.210938 434.046875 17.144531 429.109375 23.234375 429.109375 C 29.320313 429.109375 34.257813 434.046875 34.257813 440.132813 "/>
<path style="fill-rule:nonzero;fill:rgb(18.431373%,30.980392%,30.980392%);fill-opacity:1;stroke-width:0.708661;stroke-linecap:round;stroke-linejoin:round;stroke:rgb(18.431373%,30.980392%,30.980392%);stroke-opacity:1;stroke-miterlimit:10;" d="M 111.800781 440.132813 C 111.800781 446.222656 106.863281 451.160156 100.773438 451.160156 C 94.6875 451.160156 89.75 446.222656 89.75 440.132813 C 89.75 434.046875 94.6875 429.109375 100.773438 429.109375 C 106.863281 429.109375 111.800781 434.046875 111.800781 440.132813 "/>
<path style="fill-rule:nonzero;fill:rgb(18.431373%,30.980392%,30.980392%);fill-opacity:1;stroke-width:0.708661;stroke-linecap:round;stroke-linejoin:round;stroke:rgb(18.431373%,30.980392%,30.980392%);stroke-opacity:1;stroke-miterlimit:10;" d="M 189.339844 440.132813 C 189.339844 446.222656 184.40625 451.160156 178.316406 451.160156 C 172.226563 451.160156 167.292969 446.222656 167.292969 440.132813 C 167.292969 434.046875 172.226563 429.109375 178.316406 429.109375 C 184.40625 429.109375 189.339844 434.046875 189.339844 440.132813 "/>
<path style="fill-rule:nonzero;fill:rgb(18.431373%,30.980392%,30.980392%);fill-opacity:1;stroke-width:0.708661;stroke-linecap:round;stroke-linejoin:round;stroke:rgb(18.431373%,30.980392%,30.980392%);stroke-opacity:1;stroke-miterlimit:10;" d="M 266.882813 440.132813 C 266.882813 446.222656 261.945313 451.160156 255.859375 451.160156 C 249.769531 451.160156 244.832031 446.222656 244.832031 440.132813 C 244.832031 434.046875 249.769531 429.109375 255.859375 429.109375 C 261.945313 429.109375 266.882813 434.046875 266.882813 440.132813 "/>
<path style="fill-rule:nonzero;fill:rgb(18.431373%,30.980392%,30.980392%);fill-opacity:1;stroke-width:0.708661;stroke-linecap:round;stroke-linejoin:round;stroke:rgb(18.431373%,30.980392%,30.980392%);stroke-opacity:1;stroke-miterlimit:10;" d="M 344.421875 440.132813 C 344.421875 446.222656 339.488281 451.160156 333.398438 451.160156 C 327.3125 451.160156 322.375 446.222656 322.375 440.132813 C 322.375 434.046875 327.3125 429.109375 333.398438 429.109375 C 339.488281 429.109375 344.421875 434.046875 344.421875 440.132813 "/>
<path style="fill-rule:nonzero;fill:rgb(18.431373%,30.980392%,30.980392%);fill-opacity:1;stroke-width:0.708661;stroke-linecap:round;stroke-linejoin:round;stroke:rgb(18.431373%,30.980392%,30.980392%);stroke-opacity:1;stroke-miterlimit:10;" d="M 421.964844 440.132813 C 421.964844 446.222656 417.027344 451.160156 410.941406 451.160156 C 404.851563 451.160156 399.917969 446.222656 399.917969 440.132813 C 399.917969 434.046875 404.851563 429.109375 410.941406 429.109375 C 417.027344 429.109375 421.964844 434.046875 421.964844 440.132813 "/>
<path style="fill-rule:nonzero;fill:rgb(18.431373%,30.980392%,30.980392%);fill-opacity:1;stroke-width:0.708661;stroke-linecap:round;stroke-linejoin:round;stroke:rgb(18.431373%,30.980392%,30.980392%);stroke-opacity:1;stroke-miterlimit:10;" d="M 499.507813 440.132813 C 499.507813 446.222656 494.570313 451.160156 488.480469 451.160156 C 482.394531 451.160156 477.457031 446.222656 477.457031 440.132813 C 477.457031 434.046875 482.394531 429.109375 488.480469 429.109375 C 494.570313 429.109375 499.507813 434.046875 499.507813 440.132813 "/>
<path style="fill-rule:nonzero;fill:rgb(18.431373%,30.980392%,30.980392%);fill-opacity:1;stroke-width:0.708661;stroke-linecap:round;stroke-linejoin:round;stroke:rgb(18.431373%,30.980392%,30.980392%);stroke-opacity:1;stroke-miterlimit:10;" d="M 577.046875 440.132813 C 577.046875 446.222656 572.113281 451.160156 566.023438 451.160156 C 559.933594 451.160156 555 446.222656 555 440.132813 C 555 434.046875 559.933594 429.109375 566.023438 429.109375 C 572.113281 429.109375 577.046875 434.046875 577.046875 440.132813 "/>
<path style="fill-rule:nonzero;fill:rgb(18.431373%,30.980392%,30.980392%);fill-opacity:1;stroke-width:0.708661;stroke-linecap:round;stroke-linejoin:round;stroke:rgb(18.431373%,30.980392%,30.980392%);stroke-opacity:1;stroke-miterlimit:10;" d="M 654.589844 440.132813 C 654.589844 446.222656 649.652344 451.160156 643.566406 451.160156 C 637.476563 451.160156 632.539063 446.222656 632.539063 440.132813 C 632.539063 434.046875 637.476563 429.109375 643.566406 429.109375 C 649.652344 429.109375 654.589844 434.046875 654.589844 440.132813 "/>
<path style="fill-rule:nonzero;fill:rgb(18.431373%,30.980392%,30.980392%);fill-opacity:1;stroke-width:0.708661;stroke-linecap:round;stroke-linejoin:round;stroke:rgb(18.431373%,30.980392%,30.980392%);stroke-opacity:1;stroke-miterlimit:10;" d="M 732.128906 440.132813 C 732.128906 446.222656 727.195313 451.160156 721.105469 451.160156 C 715.019531 451.160156 710.082031 446.222656 710.082031 440.132813 C 710.082031 434.046875 715.019531 429.109375 721.105469 429.109375 C 727.195313 429.109375 732.128906 434.046875 732.128906 440.132813 "/>
<path style="fill-rule:nonzero;fill:rgb(18.431373%,30.980392%,30.980392%);fill-opacity:1;stroke-width:0.708661;stroke-linecap:round;stroke-linejoin:round;stroke:rgb(18.431373%,30.980392%,30.980392%);stroke-opacity:1;stroke-miterlimit:10;" d="M 34.257813 388.046875 C 34.257813 394.136719 29.320313 399.070313 23.234375 399.070313 C 17.144531 399.070313 12.210938 394.136719 12.210938 388.046875 C 12.210938 381.957031 17.144531 377.023438 23.234375 377.023438 C 29.320313 377.023438 34.257813 381.957031 34.257813 388.046875 "/>
<path style="fill-rule:nonzero;fill:rgb(18.431373%,30.980392%,30.980392%);fill-opacity:1;stroke-width:0.708661;stroke-linecap:round;stroke-linejoin:round;stroke:rgb(18.431373%,30.980392%,30.980392%);stroke-opacity:1;stroke-miterlimit:10;" d="M 111.800781 388.046875 C 111.800781 394.136719 106.863281 399.070313 100.773438 399.070313 C 94.6875 399.070313 89.75 394.136719 89.75 388.046875 C 89.75 381.957031 94.6875 377.023438 100.773438 377.023438 C 106.863281 377.023438 111.800781 381.957031 111.800781 388.046875 "/>
<path style="fill-rule:nonzero;fill:rgb(18.431373%,30.980392%,30.980392%);fill-opacity:1;stroke-width:0.708661;stroke-linecap:round;stroke-linejoin:round;stroke:rgb(18.431373%,30.980392%,30.980392%);stroke-opacity:1;stroke-miterlimit:10;" d="M 189.339844 388.046875 C 189.339844 394.136719 184.40625 399.070313 178.316406 399.070313 C 172.226563 399.070313 167.292969 394.136719 167.292969 388.046875 C 167.292969 381.957031 172.226563 377.023438 178.316406 377.023438 C 184.40625 377.023438 189.339844 381.957031 189.339844 388.046875 "/>
<path style="fill-rule:nonzero;fill:rgb(18.431373%,30.980392%,30.980392%);fill-opacity:1;stroke-width:0.708661;stroke-linecap:round;stroke-linejoin:round;stroke:rgb(18.431373%,30.980392%,30.980392%);stroke-opacity:1;stroke-miterlimit:10;" d="M 266.882813 388.046875 C 266.882813 394.136719 261.945313 399.070313 255.859375 399.070313 C 249.769531 399.070313 244.832031 394.136719 244.832031 388.046875 C 244.832031 381.957031 249.769531 377.023438 255.859375 377.023438 C 261.945313 377.023438 266.882813 381.957031 266.882813 388.046875 "/>
<path style="fill-rule:nonzero;fill:rgb(18.431373%,30.980392%,30.980392%);fill-opacity:1;stroke-width:0.708661;stroke-linecap:round;stroke-linejoin:round;stroke:rgb(18.431373%,30.980392%,30.980392%);stroke-opacity:1;stroke-miterlimit:10;" d="M 344.421875 388.046875 C 344.421875 394.136719 339.488281 399.070313 333.398438 399.070313 C 327.3125 399.070313 322.375 394.136719 322.375 388.046875 C 322.375 381.957031 327.3125 377.023438 333.398438 377.023438 C 339.488281 377.023438 344.421875 381.957031 344.421875 388.046875 "/>
<path style="fill-rule:nonzero;fill:rgb(18.431373%,30.980392%,30.980392%);fill-opacity:1;stroke-width:0.708661;stroke-linecap:round;stroke-linejoin:round;stroke:rgb(18.431373%,30.980392%,30.980392%);stroke-opacity:1;stroke-miterlimit:10;" d="M 421.964844 388.046875 C 421.964844 394.136719 417.027344 399.070313 410.941406 399.070313 C 404.851563 399.070313 399.917969 394.136719 399.917969 388.046875 C 399.917969 381.957031 404.851563 377.023438 410.941406 377.023438 C 417.027344 377.023438 421.964844 381.957031 421.964844 388.046875 "/>
<path style="fill-rule:nonzero;fill:rgb(18.431373%,30.980392%,30.980392%);fill-opacity:1;stroke-width:0.708661;stroke-linecap:round;stroke-linejoin:round;stroke:rgb(18.431373%,30.980392%,30.980392%);stroke-opacity:1;stroke-miterlimit:10;" d="M 499.507813 388.046875 C 499.507813 394.136719 494.570313 399.070313 488.480469 399.070313 C 482.394531 399.070313 477.457031 394.136719 477.457031 388.046875 C 477.457031 381.957031 482.394531 377.023438 488.480469 377.023438 C 494.570313 377.023438 499.507813 381.957031 499.507813 388.046875 "/>
<path style="fill-rule:nonzero;fill:rgb(18.431373%,30.980392%,30.980392%);fill-opacity:1;stroke-width:0.708661;stroke-linecap:round;stroke-linejoin:round;stroke:rgb(18.431373%,30.980392%,30.980392%);stroke-opacity:1;stroke-miterlimit:10;" d="M 577.046875 388.046875 C 577.046875 394.136719 572.113281 399.070313 566.023438 399.070313 C 559.933594 399.070313 555 394.136719 555 388.046875 C 555 381.957031 559.933594 377.023438 566.023438 377.023438 C 572.113281 377.023438 577.046875 381.957031 577.046875 388.046875 "/>
<path style="fill-rule:nonzero;fill:rgb(18.431373%,30.980392%,30.980392%);fill-opacity:1;stroke-width:0.708661;stroke-linecap:round;stroke-linejoin:round;stroke:rgb(18.431373%,30.980392%,30.980392%);stroke-opacity:1;stroke-miterlimit:10;" d="M 654.589844 388.046875 C 654.589844 394.136719 649.652344 399.070313 643.566406 399.070313 C 637.476563 399.070313 632.539063 394.136719 632.539063 388.046875 C 632.539063 381.957031 637.476563 377.023438 643.566406 377.023438 C 649.652344 377.023438 654.589844 381.957031 654.589844 388.046875 "/>
<path style="fill-rule:nonzero;fill:rgb(18.431373%,30.980392%,30.980392%);fill-opacity:1;stroke-width:0.708661;stroke-linecap:round;stroke-linejoin:round;stroke:rgb(18.431373%,30.980392%,30.980392%);stroke-opacity:1;stroke-miterlimit:10;" d="M 732.128906 388.046875 C 732.128906 394.136719 727.195313 399.070313 721.105469 399.070313 C 715.019531 399.070313 710.082031 394.136719 710.082031 388.046875 C 710.082031 381.957031 715.019531 377.023438 721.105469 377.023438 C 727.195313 377.023438 732.128906 381.957031 732.128906 388.046875 "/>
<path style="fill-rule:nonzero;fill:rgb(18.431373%,30.980392%,30.980392%);fill-opacity:1;stroke-width:0.708661;stroke-linecap:round;stroke-linejoin:round;stroke:rgb(18.431373%,30.980392%,30.980392%);stroke-opacity:1;stroke-miterlimit:10;" d="M 34.257813 335.960938 C 34.257813 342.050781 29.320313 346.984375 23.234375 346.984375 C 17.144531 346.984375 12.210938 342.050781 12.210938 335.960938 C 12.210938 329.871094 17.144531 324.9375 23.234375 324.9375 C 29.320313 324.9375 34.257813 329.871094 34.257813 335.960938 "/>
<path style="fill-rule:nonzero;fill:rgb(18.431373%,30.980392%,30.980392%);fill-opacity:1;stroke-width:0.708661;stroke-linecap:round;stroke-linejoin:round;stroke:rgb(18.431373%,30.980392%,30.980392%);stroke-opacity:1;stroke-miterlimit:10;" d="M 111.800781 335.960938 C 111.800781 342.050781 106.863281 346.984375 100.773438 346.984375 C 94.6875 346.984375 89.75 342.050781 89.75 335.960938 C 89.75 329.871094 94.6875 324.9375 100.773438 324.9375 C 106.863281 324.9375 111.800781 329.871094 111.800781 335.960938 "/>
<path style="fill-rule:nonzero;fill:rgb(18.431373%,30.980392%,30.980392%);fill-opacity:1;stroke-width:0.708661;stroke-linecap:round;stroke-linejoin:round;stroke:rgb(18.431373%,30.980392%,30.980392%);stroke-opacity:1;stroke-miterlimit:10;" d="M 189.339844 335.960938 C 189.339844 342.050781 184.40625 346.984375 178.316406 346.984375 C 172.226563 346.984375 167.292969 342.050781 167.292969 335.960938 C 167.292969 329.871094 172.226563 324.9375 178.316406 324.9375 C 184.40625 324.9375 189.339844 329.871094 189.339844 335.960938 "/>
<path style="fill-rule:nonzero;fill:rgb(18.431373%,30.980392%,30.980392%);fill-opacity:1;stroke-width:0.708661;stroke-linecap:round;stroke-linejoin:round;stroke:rgb(18.431373%,30.980392%,30.980392%);stroke-opacity:1;stroke-miterlimit:10;" d="M 266.882813 335.960938 C 266.882813 342.050781 261.945313 346.984375 255.859375 346.984375 C 249.769531 346.984375 244.832031 342.050781 244.832031 335.960938 C 244.832031 329.871094 249.769531 324.9375 255.859375 324.9375 C 261.945313 324.9375 266.882813 329.871094 266.882813 335.960938 "/>
<path style="fill-rule:nonzero;fill:rgb(18.431373%,30.980392%,30.980392%);fill-opacity:1;stroke-width:0.708661;stroke-linecap:round;stroke-linejoin:round;stroke:rgb(18.431373%,30.980392%,30.980392%);stroke-opacity:1;stroke-miterlimit:10;" d="M 344.421875 335.960938 C 344.421875 342.050781 339.488281 346.984375 333.398438 346.984375 C 327.3125 346.984375 322.375 342.050781 322.375 335.960938 C 322.375 329.871094 327.3125 324.9375 333.398438 324.9375 C 339.488281 324.9375 344.421875 329.871094 344.421875 335.960938 "/>
<path style="fill-rule:nonzero;fill:rgb(18.431373%,30.980392%,30.980392%);fill-opacity:1;stroke-width:0.708661;stroke-linecap:round;stroke-linejoin:round;stroke:rgb(18.431373%,30.980392%,30.980392%);stroke-opacity:1;stroke-miterlimit:10;" d="M 421.964844 335.960938 C 421.964844 342.050781 417.027344 346.984375 410.941406 346.984375 C 404.851563 346.984375 399.917969 342.050781 399.917969 335.960938 C 399.917969 329.871094 404.851563 324.9375 410.941406 324.9375 C 417.027344 324.9375 421.964844 329.871094 421.964844 335.960938 "/>
<path style="fill-rule:nonzero;fill:rgb(18.431373%,30.980392%,30.980392%);fill-opacity:1;stroke-width:0.708661;stroke-linecap:round;stroke-linejoin:round;stroke:rgb(18.431373%,30.980392%,30.980392%);stroke-opacity:1;stroke-miterlimit:10;" d="M 499.507813 335.960938 C 499.507813 342.050781 494.570313 346.984375 488.480469 346.984375 C 482.394531 346.984375 477.457031 342.050781 477.457031 335.960938 C 477.457031 329.871094 482.394531 324.9375 488.480469 324.9375 C 494.570313 324.9375 499.507813 329.871094 499.507813 335.960938 "/>
<path style="fill-rule:nonzero;fill:rgb(18.431373%,30.980392%,30.980392%);fill-opacity:1;stroke-width:0.708661;stroke-linecap:round;stroke-linejoin:round;stroke:rgb(18.431373%,30.980392%,30.980392%);stroke-opacity:1;stroke-miterlimit:10;" d="M 577.046875 335.960938 C 577.046875 342.050781 572.113281 346.984375 566.023438 346.984375 C 559.933594 346.984375 555 342.050781 555 335.960938 C 555 329.871094 559.933594 324.9375 566.023438 324.9375 C 572.113281 324.9375 577.046875 329.871094 577.046875 335.960938 "/>
<path style="fill-rule:nonzero;fill:rgb(18.431373%,30.980392%,30.980392%);fill-opacity:1;stroke-width:0.708661;stroke-linecap:round;stroke-linejoin:round;stroke:rgb(18.431373%,30.980392%,30.980392%);stroke-opacity:1;stroke-miterlimit:10;" d="M 654.589844 335.960938 C 654.589844 342.050781 649.652344 346.984375 643.566406 346.984375 C 637.476563 346.984375 632.539063 342.050781 632.539063 335.960938 C 632.539063 329.871094 637.476563 324.9375 643.566406 324.9375 C 649.652344 324.9375 654.589844 329.871094 654.589844 335.960938 "/>
<path style="fill-rule:nonzero;fill:rgb(18.431373%,30.980392%,30.980392%);fill-opacity:1;stroke-width:0.708661;stroke-linecap:round;stroke-linejoin:round;stroke:rgb(18.431373%,30.980392%,30.980392%);stroke-opacity:1;stroke-miterlimit:10;" d="M 732.128906 335.960938 C 732.128906 342.050781 727.195313 346.984375 721.105469 346.984375 C 715.019531 346.984375 710.082031 342.050781 710.082031 335.960938 C 710.082031 329.871094 715.019531 324.9375 721.105469 324.9375 C 727.195313 324.9375 732.128906 329.871094 732.128906 335.960938 "/>
<path style="fill-rule:nonzero;fill:rgb(18.431373%,30.980392%,30.980392%);fill-opacity:1;stroke-width:0.708661;stroke-linecap:round;stroke-linejoin:round;stroke:rgb(18.431373%,30.980392%,30.980392%);stroke-opacity:1;stroke-miterlimit:10;" d="M 34.257813 283.875 C 34.257813 289.960938 29.320313 294.898438 23.234375 294.898438 C 17.144531 294.898438 12.210938 289.960938 12.210938 283.875 C 12.210938 277.785156 17.144531 272.847656 23.234375 272.847656 C 29.320313 272.847656 34.257813 277.785156 34.257813 283.875 "/>
<path style="fill-rule:nonzero;fill:rgb(18.431373%,30.980392%,30.980392%);fill-opacity:1;stroke-width:0.708661;stroke-linecap:round;stroke-linejoin:round;stroke:rgb(18.431373%,30.980392%,30.980392%);stroke-opacity:1;stroke-miterlimit:10;" d="M 111.800781 283.875 C 111.800781 289.960938 106.863281 294.898438 100.773438 294.898438 C 94.6875 294.898438 89.75 289.960938 89.75 283.875 C 89.75 277.785156 94.6875 272.847656 100.773438 272.847656 C 106.863281 272.847656 111.800781 277.785156 111.800781 283.875 "/>
<path style="fill-rule:nonzero;fill:rgb(18.431373%,30.980392%,30.980392%);fill-opacity:1;stroke-width:0.708661;stroke-linecap:round;stroke-linejoin:round;stroke:rgb(18.431373%,30.980392%,30.980392%);stroke-opacity:1;stroke-miterlimit:10;" d="M 189.339844 283.875 C 189.339844 289.960938 184.40625 294.898438 178.316406 294.898438 C 172.226563 294.898438 167.292969 289.960938 167.292969 283.875 C 167.292969 277.785156 172.226563 272.847656 178.316406 272.847656 C 184.40625 272.847656 189.339844 277.785156 189.339844 283.875 "/>
<path style="fill-rule:nonzero;fill:rgb(18.431373%,30.980392%,30.980392%);fill-opacity:1;stroke-width:0.708661;stroke-linecap:round;stroke-linejoin:round;stroke:rgb(18.431373%,30.980392%,30.980392%);stroke-opacity:1;stroke-miterlimit:10;" d="M 266.882813 283.875 C 266.882813 289.960938 261.945313 294.898438 255.859375 294.898438 C 249.769531 294.898438 244.832031 289.960938 244.832031 283.875 C 244.832031 277.785156 249.769531 272.847656 255.859375 272.847656 C 261.945313 272.847656 266.882813 277.785156 266.882813 283.875 "/>
<path style="fill-rule:nonzero;fill:rgb(18.431373%,30.980392%,30.980392%);fill-opacity:1;stroke-width:0.708661;stroke-linecap:round;stroke-linejoin:round;stroke:rgb(18.431373%,30.980392%,30.980392%);stroke-opacity:1;stroke-miterlimit:10;" d="M 344.421875 283.875 C 344.421875 289.960938 339.488281 294.898438 333.398438 294.898438 C 327.3125 294.898438 322.375 289.960938 322.375 283.875 C 322.375 277.785156 327.3125 272.847656 333.398438 272.847656 C 339.488281 272.847656 344.421875 277.785156 344.421875 283.875 "/>
<path style="fill-rule:nonzero;fill:rgb(18.431373%,30.980392%,30.980392%);fill-opacity:1;stroke-width:0.708661;stroke-linecap:round;stroke-linejoin:round;stroke:rgb(18.431373%,30.980392%,30.980392%);stroke-opacity:1;stroke-miterlimit:10;" d="M 421.964844 283.875 C 421.964844 289.960938 417.027344 294.898438 410.941406 294.898438 C 404.851563 294.898438 399.917969 289.960938 399.917969 283.875 C 399.917969 277.785156 404.851563 272.847656 410.941406 272.847656 C 417.027344 272.847656 421.964844 277.785156 421.964844 283.875 "/>
<path style="fill-rule:nonzero;fill:rgb(18.431373%,30.980392%,30.980392%);fill-opacity:1;stroke-width:0.708661;stroke-linecap:round;stroke-linejoin:round;stroke:rgb(18.431373%,30.980392%,30.980392%);stroke-opacity:1;stroke-miterlimit:10;" d="M 499.507813 283.875 C 499.507813 289.960938 494.570313 294.898438 488.480469 294.898438 C 482.394531 294.898438 477.457031 289.960938 477.457031 283.875 C 477.457031 277.785156 482.394531 272.847656 488.480469 272.847656 C 494.570313 272.847656 499.507813 277.785156 499.507813 283.875 "/>
<path style="fill-rule:nonzero;fill:rgb(18.431373%,30.980392%,30.980392%);fill-opacity:1;stroke-width:0.708661;stroke-linecap:round;stroke-linejoin:round;stroke:rgb(18.431373%,30.980392%,30.980392%);stroke-opacity:1;stroke-miterlimit:10;" d="M 577.046875 283.875 C 577.046875 289.960938 572.113281 294.898438 566.023438 294.898438 C 559.933594 294.898438 555 289.960938 555 283.875 C 555 277.785156 559.933594 272.847656 566.023438 272.847656 C 572.113281 272.847656 577.046875 277.785156 577.046875 283.875 "/>
<path style="fill-rule:nonzero;fill:rgb(18.431373%,30.980392%,30.980392%);fill-opacity:1;stroke-width:0.708661;stroke-linecap:round;stroke-linejoin:round;stroke:rgb(18.431373%,30.980392%,30.980392%);stroke-opacity:1;stroke-miterlimit:10;" d="M 654.589844 283.875 C 654.589844 289.960938 649.652344 294.898438 643.566406 294.898438 C 637.476563 294.898438 632.539063 289.960938 632.539063 283.875 C 632.539063 277.785156 637.476563 272.847656 643.566406 272.847656 C 649.652344 272.847656 654.589844 277.785156 654.589844 283.875 "/>
<path style="fill-rule:nonzero;fill:rgb(18.431373%,30.980392%,30.980392%);fill-opacity:1;stroke-width:0.708661;stroke-linecap:round;stroke-linejoin:round;stroke:rgb(18.431373%,30.980392%,30.980392%);stroke-opacity:1;stroke-miterlimit:10;" d="M 732.128906 283.875 C 732.128906 289.960938 727.195313 294.898438 721.105469 294.898438 C 715.019531 294.898438 710.082031 289.960938 710.082031 283.875 C 710.082031 277.785156 715.019531 272.847656 721.105469 272.847656 C 727.195313 272.847656 732.128906 277.785156 732.128906 283.875 "/>
<path style="fill-rule:nonzero;fill:rgb(18.431373%,30.980392%,30.980392%);fill-opacity:1;stroke-width:0.708661;stroke-linecap:round;stroke-linejoin:round;stroke:rgb(18.431373%,30.980392%,30.980392%);stroke-opacity:1;stroke-miterlimit:10;" d="M 34.257813 231.785156 C 34.257813 237.875 29.320313 242.8125 23.234375 242.8125 C 17.144531 242.8125 12.210938 237.875 12.210938 231.785156 C 12.210938 225.699219 17.144531 220.761719 23.234375 220.761719 C 29.320313 220.761719 34.257813 225.699219 34.257813 231.785156 "/>
<path style="fill-rule:nonzero;fill:rgb(18.431373%,30.980392%,30.980392%);fill-opacity:1;stroke-width:0.708661;stroke-linecap:round;stroke-linejoin:round;stroke:rgb(18.431373%,30.980392%,30.980392%);stroke-opacity:1;stroke-miterlimit:10;" d="M 111.800781 231.785156 C 111.800781 237.875 106.863281 242.8125 100.773438 242.8125 C 94.6875 242.8125 89.75 237.875 89.75 231.785156 C 89.75 225.699219 94.6875 220.761719 100.773438 220.761719 C 106.863281 220.761719 111.800781 225.699219 111.800781 231.785156 "/>
<path style="fill-rule:nonzero;fill:rgb(18.431373%,30.980392%,30.980392%);fill-opacity:1;stroke-width:0.708661;stroke-linecap:round;stroke-linejoin:round;stroke:rgb(18.431373%,30.980392%,30.980392%);stroke-opacity:1;stroke-miterlimit:10;" d="M 189.339844 231.785156 C 189.339844 237.875 184.40625 242.8125 178.316406 242.8125 C 172.226563 242.8125 167.292969 237.875 167.292969 231.785156 C 167.292969 225.699219 172.226563 220.761719 178.316406 220.761719 C 184.40625 220.761719 189.339844 225.699219 189.339844 231.785156 "/>
<path style="fill-rule:nonzero;fill:rgb(18.431373%,30.980392%,30.980392%);fill-opacity:1;stroke-width:0.708661;stroke-linecap:round;stroke-linejoin:round;stroke:rgb(18.431373%,30.980392%,30.980392%);stroke-opacity:1;stroke-miterlimit:10;" d="M 266.882813 231.785156 C 266.882813 237.875 261.945313 242.8125 255.859375 242.8125 C 249.769531 242.8125 244.832031 237.875 244.832031 231.785156 C 244.832031 225.699219 249.769531 220.761719 255.859375 220.761719 C 261.945313 220.761719 266.882813 225.699219 266.882813 231.785156 "/>
<path style="fill-rule:nonzero;fill:rgb(18.431373%,30.980392%,30.980392%);fill-opacity:1;stroke-width:0.708661;stroke-linecap:round;stroke-linejoin:round;stroke:rgb(18.431373%,30.980392%,30.980392%);stroke-opacity:1;stroke-miterlimit:10;" d="M 344.421875 231.785156 C 344.421875 237.875 339.488281 242.8125 333.398438 242.8125 C 327.3125 242.8125 322.375 237.875 322.375 231.785156 C 322.375 225.699219 327.3125 220.761719 333.398438 220.761719 C 339.488281 220.761719 344.421875 225.699219 344.421875 231.785156 "/>
<path style="fill-rule:nonzero;fill:rgb(18.431373%,30.980392%,30.980392%);fill-opacity:1;stroke-width:0.708661;stroke-linecap:round;stroke-linejoin:round;stroke:rgb(18.431373%,30.980392%,30.980392%);stroke-opacity:1;stroke-miterlimit:10;" d="M 421.964844 231.785156 C 421.964844 237.875 417.027344 242.8125 410.941406 242.8125 C 404.851563 242.8125 399.917969 237.875 399.917969 231.785156 C 399.917969 225.699219 404.851563 220.761719 410.941406 220.761719 C 417.027344 220.761719 421.964844 225.699219 421.964844 231.785156 "/>
<path style="fill-rule:nonzero;fill:rgb(18.431373%,30.980392%,30.980392%);fill-opacity:1;stroke-width:0.708661;stroke-linecap:round;stroke-linejoin:round;stroke:rgb(18.431373%,30.980392%,30.980392%);stroke-opacity:1;stroke-miterlimit:10;" d="M 499.507813 231.785156 C 499.507813 237.875 494.570313 242.8125 488.480469 242.8125 C 482.394531 242.8125 477.457031 237.875 477.457031 231.785156 C 477.457031 225.699219 482.394531 220.761719 488.480469 220.761719 C 494.570313 220.761719 499.507813 225.699219 499.507813 231.785156 "/>
<path style="fill-rule:nonzero;fill:rgb(18.431373%,30.980392%,30.980392%);fill-opacity:1;stroke-width:0.708661;stroke-linecap:round;stroke-linejoin:round;stroke:rgb(18.431373%,30.980392%,30.980392%);stroke-opacity:1;stroke-miterlimit:10;" d="M 577.046875 231.785156 C 577.046875 237.875 572.113281 242.8125 566.023438 242.8125 C 559.933594 242.8125 555 237.875 555 231.785156 C 555 225.699219 559.933594 220.761719 566.023438 220.761719 C 572.113281 220.761719 577.046875 225.699219 577.046875 231.785156 "/>
<path style="fill-rule:nonzero;fill:rgb(18.431373%,30.980392%,30.980392%);fill-opacity:1;stroke-width:0.708661;stroke-linecap:round;stroke-linejoin:round;stroke:rgb(18.431373%,30.980392%,30.980392%);stroke-opacity:1;stroke-miterlimit:10;" d="M 654.589844 231.785156 C 654.589844 237.875 649.652344 242.8125 643.566406 242.8125 C 637.476563 242.8125 632.539063 237.875 632.539063 231.785156 C 632.539063 225.699219 637.476563 220.761719 643.566406 220.761719 C 649.652344 220.761719 654.589844 225.699219 654.589844 231.785156 "/>
<path style="fill-rule:nonzero;fill:rgb(18.431373%,30.980392%,30.980392%);fill-opacity:1;stroke-width:0.708661;stroke-linecap:round;stroke-linejoin:round;stroke:rgb(18.431373%,30.980392%,30.980392%);stroke-opacity:1;stroke-miterlimit:10;" d="M 732.128906 231.785156 C 732.128906 237.875 727.195313 242.8125 721.105469 242.8125 C 715.019531 242.8125 710.082031 237.875 710.082031 231.785156 C 710.082031 225.699219 715.019531 220.761719 721.105469 220.761719 C 727.195313 220.761719 732.128906 225.699219 732.128906 231.785156 "/>
<path style="fill-rule:nonzero;fill:rgb(18.431373%,30.980392%,30.980392%);fill-opacity:1;stroke-width:0.708661;stroke-linecap:round;stroke-linejoin:round;stroke:rgb(18.431373%,30.980392%,30.980392%);stroke-opacity:1;stroke-miterlimit:10;" d="M 34.257813 179.699219 C 34.257813 185.789063 29.320313 190.722656 23.234375 190.722656 C 17.144531 190.722656 12.210938 185.789063 12.210938 179.699219 C 12.210938 173.613281 17.144531 168.675781 23.234375 168.675781 C 29.320313 168.675781 34.257813 173.613281 34.257813 179.699219 "/>
<path style="fill-rule:nonzero;fill:rgb(18.431373%,30.980392%,30.980392%);fill-opacity:1;stroke-width:0.708661;stroke-linecap:round;stroke-linejoin:round;stroke:rgb(18.431373%,30.980392%,30.980392%);stroke-opacity:1;stroke-miterlimit:10;" d="M 111.800781 179.699219 C 111.800781 185.789063 106.863281 190.722656 100.773438 190.722656 C 94.6875 190.722656 89.75 185.789063 89.75 179.699219 C 89.75 173.613281 94.6875 168.675781 100.773438 168.675781 C 106.863281 168.675781 111.800781 173.613281 111.800781 179.699219 "/>
<path style="fill-rule:nonzero;fill:rgb(18.431373%,30.980392%,30.980392%);fill-opacity:1;stroke-width:0.708661;stroke-linecap:round;stroke-linejoin:round;stroke:rgb(18.431373%,30.980392%,30.980392%);stroke-opacity:1;stroke-miterlimit:10;" d="M 189.339844 179.699219 C 189.339844 185.789063 184.40625 190.722656 178.316406 190.722656 C 172.226563 190.722656 167.292969 185.789063 167.292969 179.699219 C 167.292969 173.613281 172.226563 168.675781 178.316406 168.675781 C 184.40625 168.675781 189.339844 173.613281 189.339844 179.699219 "/>
<path style="fill-rule:nonzero;fill:rgb(18.431373%,30.980392%,30.980392%);fill-opacity:1;stroke-width:0.708661;stroke-linecap:round;stroke-linejoin:round;stroke:rgb(18.431373%,30.980392%,30.980392%);stroke-opacity:1;stroke-miterlimit:10;" d="M 266.882813 179.699219 C 266.882813 185.789063 261.945313 190.722656 255.859375 190.722656 C 249.769531 190.722656 244.832031 185.789063 244.832031 179.699219 C 244.832031 173.613281 249.769531 168.675781 255.859375 168.675781 C 261.945313 168.675781 266.882813 173.613281 266.882813 179.699219 "/>
<path style="fill-rule:nonzero;fill:rgb(18.431373%,30.980392%,30.980392%);fill-opacity:1;stroke-width:0.708661;stroke-linecap:round;stroke-linejoin:round;stroke:rgb(18.431373%,30.980392%,30.980392%);stroke-opacity:1;stroke-miterlimit:10;" d="M 344.421875 179.699219 C 344.421875 185.789063 339.488281 190.722656 333.398438 190.722656 C 327.3125 190.722656 322.375 185.789063 322.375 179.699219 C 322.375 173.613281 327.3125 168.675781 333.398438 168.675781 C 339.488281 168.675781 344.421875 173.613281 344.421875 179.699219 "/>
<path style="fill-rule:nonzero;fill:rgb(18.431373%,30.980392%,30.980392%);fill-opacity:1;stroke-width:0.708661;stroke-linecap:round;stroke-linejoin:round;stroke:rgb(18.431373%,30.980392%,30.980392%);stroke-opacity:1;stroke-miterlimit:10;" d="M 421.964844 179.699219 C 421.964844 185.789063 417.027344 190.722656 410.941406 190.722656 C 404.851563 190.722656 399.917969 185.789063 399.917969 179.699219 C 399.917969 173.613281 404.851563 168.675781 410.941406 168.675781 C 417.027344 168.675781 421.964844 173.613281 421.964844 179.699219 "/>
<path style="fill-rule:nonzero;fill:rgb(18.431373%,30.980392%,30.980392%);fill-opacity:1;stroke-width:0.708661;stroke-linecap:round;stroke-linejoin:round;stroke:rgb(18.431373%,30.980392%,30.980392%);stroke-opacity:1;stroke-miterlimit:10;" d="M 499.507813 179.699219 C 499.507813 185.789063 494.570313 190.722656 488.480469 190.722656 C 482.394531 190.722656 477.457031 185.789063 477.457031 179.699219 C 477.457031 173.613281 482.394531 168.675781 488.480469 168.675781 C 494.570313 168.675781 499.507813 173.613281 499.507813 179.699219 "/>
<path style="fill-rule:nonzero;fill:rgb(18.431373%,30.980392%,30.980392%);fill-opacity:1;stroke-width:0.708661;stroke-linecap:round;stroke-linejoin:round;stroke:rgb(18.431373%,30.980392%,30.980392%);stroke-opacity:1;stroke-miterlimit:10;" d="M 577.046875 179.699219 C 577.046875 185.789063 572.113281 190.722656 566.023438 190.722656 C 559.933594 190.722656 555 185.789063 555 179.699219 C 555 173.613281 559.933594 168.675781 566.023438 168.675781 C 572.113281 168.675781 577.046875 173.613281 577.046875 179.699219 "/>
<path style="fill-rule:nonzero;fill:rgb(18.431373%,30.980392%,30.980392%);fill-opacity:1;stroke-width:0.708661;stroke-linecap:round;stroke-linejoin:round;stroke:rgb(18.431373%,30.980392%,30.980392%);stroke-opacity:1;stroke-miterlimit:10;" d="M 654.589844 179.699219 C 654.589844 185.789063 649.652344 190.722656 643.566406 190.722656 C 637.476563 190.722656 632.539063 185.789063 632.539063 179.699219 C 632.539063 173.613281 637.476563 168.675781 643.566406 168.675781 C 649.652344 168.675781 654.589844 173.613281 654.589844 179.699219 "/>
<path style="fill-rule:nonzero;fill:rgb(18.431373%,30.980392%,30.980392%);fill-opacity:1;stroke-width:0.708661;stroke-linecap:round;stroke-linejoin:round;stroke:rgb(18.431373%,30.980392%,30.980392%);stroke-opacity:1;stroke-miterlimit:10;" d="M 732.128906 179.699219 C 732.128906 185.789063 727.195313 190.722656 721.105469 190.722656 C 715.019531 190.722656 710.082031 185.789063 710.082031 179.699219 C 710.082031 173.613281 715.019531 168.675781 721.105469 168.675781 C 727.195313 168.675781 732.128906 173.613281 732.128906 179.699219 "/>
<path style="fill-rule:nonzero;fill:rgb(18.431373%,30.980392%,30.980392%);fill-opacity:1;stroke-width:0.708661;stroke-linecap:round;stroke-linejoin:round;stroke:rgb(18.431373%,30.980392%,30.980392%);stroke-opacity:1;stroke-miterlimit:10;" d="M 34.257813 127.613281 C 34.257813 133.703125 29.320313 138.636719 23.234375 138.636719 C 17.144531 138.636719 12.210938 133.703125 12.210938 127.613281 C 12.210938 121.523438 17.144531 116.589844 23.234375 116.589844 C 29.320313 116.589844 34.257813 121.523438 34.257813 127.613281 "/>
<path style="fill-rule:nonzero;fill:rgb(18.431373%,30.980392%,30.980392%);fill-opacity:1;stroke-width:0.708661;stroke-linecap:round;stroke-linejoin:round;stroke:rgb(18.431373%,30.980392%,30.980392%);stroke-opacity:1;stroke-miterlimit:10;" d="M 111.800781 127.613281 C 111.800781 133.703125 106.863281 138.636719 100.773438 138.636719 C 94.6875 138.636719 89.75 133.703125 89.75 127.613281 C 89.75 121.523438 94.6875 116.589844 100.773438 116.589844 C 106.863281 116.589844 111.800781 121.523438 111.800781 127.613281 "/>
<path style="fill-rule:nonzero;fill:rgb(18.431373%,30.980392%,30.980392%);fill-opacity:1;stroke-width:0.708661;stroke-linecap:round;stroke-linejoin:round;stroke:rgb(18.431373%,30.980392%,30.980392%);stroke-opacity:1;stroke-miterlimit:10;" d="M 189.339844 127.613281 C 189.339844 133.703125 184.40625 138.636719 178.316406 138.636719 C 172.226563 138.636719 167.292969 133.703125 167.292969 127.613281 C 167.292969 121.523438 172.226563 116.589844 178.316406 116.589844 C 184.40625 116.589844 189.339844 121.523438 189.339844 127.613281 "/>
<path style="fill-rule:nonzero;fill:rgb(18.431373%,30.980392%,30.980392%);fill-opacity:1;stroke-width:0.708661;stroke-linecap:round;stroke-linejoin:round;stroke:rgb(18.431373%,30.980392%,30.980392%);stroke-opacity:1;stroke-miterlimit:10;" d="M 266.882813 127.613281 C 266.882813 133.703125 261.945313 138.636719 255.859375 138.636719 C 249.769531 138.636719 244.832031 133.703125 244.832031 127.613281 C 244.832031 121.523438 249.769531 116.589844 255.859375 116.589844 C 261.945313 116.589844 266.882813 121.523438 266.882813 127.613281 "/>
<path style="fill-rule:nonzero;fill:rgb(18.431373%,30.980392%,30.980392%);fill-opacity:1;stroke-width:0.708661;stroke-linecap:round;stroke-linejoin:round;stroke:rgb(18.431373%,30.980392%,30.980392%);stroke-opacity:1;stroke-miterlimit:10;" d="M 344.421875 127.613281 C 344.421875 133.703125 339.488281 138.636719 333.398438 138.636719 C 327.3125 138.636719 322.375 133.703125 322.375 127.613281 C 322.375 121.523438 327.3125 116.589844 333.398438 116.589844 C 339.488281 116.589844 344.421875 121.523438 344.421875 127.613281 "/>
<path style="fill-rule:nonzero;fill:rgb(18.431373%,30.980392%,30.980392%);fill-opacity:1;stroke-width:0.708661;stroke-linecap:round;stroke-linejoin:round;stroke:rgb(18.431373%,30.980392%,30.980392%);stroke-opacity:1;stroke-miterlimit:10;" d="M 421.964844 127.613281 C 421.964844 133.703125 417.027344 138.636719 410.941406 138.636719 C 404.851563 138.636719 399.917969 133.703125 399.917969 127.613281 C 399.917969 121.523438 404.851563 116.589844 410.941406 116.589844 C 417.027344 116.589844 421.964844 121.523438 421.964844 127.613281 "/>
<path style="fill-rule:nonzero;fill:rgb(18.431373%,30.980392%,30.980392%);fill-opacity:1;stroke-width:0.708661;stroke-linecap:round;stroke-linejoin:round;stroke:rgb(18.431373%,30.980392%,30.980392%);stroke-opacity:1;stroke-miterlimit:10;" d="M 499.507813 127.613281 C 499.507813 133.703125 494.570313 138.636719 488.480469 138.636719 C 482.394531 138.636719 477.457031 133.703125 477.457031 127.613281 C 477.457031 121.523438 482.394531 116.589844 488.480469 116.589844 C 494.570313 116.589844 499.507813 121.523438 499.507813 127.613281 "/>
<path style="fill-rule:nonzero;fill:rgb(18.431373%,30.980392%,30.980392%);fill-opacity:1;stroke-width:0.708661;stroke-linecap:round;stroke-linejoin:round;stroke:rgb(18.431373%,30.980392%,30.980392%);stroke-opacity:1;stroke-miterlimit:10;" d="M 577.046875 127.613281 C 577.046875 133.703125 572.113281 138.636719 566.023438 138.636719 C 559.933594 138.636719 555 133.703125 555 127.613281 C 555 121.523438 559.933594 116.589844 566.023438 116.589844 C 572.113281 116.589844 577.046875 121.523438 577.046875 127.613281 "/>
<path style="fill-rule:nonzero;fill:rgb(18.431373%,30.980392%,30.980392%);fill-opacity:1;stroke-width:0.708661;stroke-linecap:round;stroke-linejoin:round;stroke:rgb(18.431373%,30.980392%,30.980392%);stroke-opacity:1;stroke-miterlimit:10;" d="M 654.589844 127.613281 C 654.589844 133.703125 649.652344 138.636719 643.566406 138.636719 C 637.476563 138.636719 632.539063 133.703125 632.539063 127.613281 C 632.539063 121.523438 637.476563 116.589844 643.566406 116.589844 C 649.652344 116.589844 654.589844 121.523438 654.589844 127.613281 "/>
<path style="fill-rule:nonzero;fill:rgb(18.431373%,30.980392%,30.980392%);fill-opacity:1;stroke-width:0.708661;stroke-linecap:round;stroke-linejoin:round;stroke:rgb(18.431373%,30.980392%,30.980392%);stroke-opacity:1;stroke-miterlimit:10;" d="M 732.128906 127.613281 C 732.128906 133.703125 727.195313 138.636719 721.105469 138.636719 C 715.019531 138.636719 710.082031 133.703125 710.082031 127.613281 C 710.082031 121.523438 715.019531 116.589844 721.105469 116.589844 C 727.195313 116.589844 732.128906 121.523438 732.128906 127.613281 "/>
<path style="fill-rule:nonzero;fill:rgb(18.431373%,30.980392%,30.980392%);fill-opacity:1;stroke-width:0.708661;stroke-linecap:round;stroke-linejoin:round;stroke:rgb(18.431373%,30.980392%,30.980392%);stroke-opacity:1;stroke-miterlimit:10;" d="M 34.257813 75.527344 C 34.257813 81.613281 29.320313 86.550781 23.234375 86.550781 C 17.144531 86.550781 12.210938 81.613281 12.210938 75.527344 C 12.210938 69.4375 17.144531 64.5 23.234375 64.5 C 29.320313 64.5 34.257813 69.4375 34.257813 75.527344 "/>
<path style="fill-rule:nonzero;fill:rgb(18.431373%,30.980392%,30.980392%);fill-opacity:1;stroke-width:0.708661;stroke-linecap:round;stroke-linejoin:round;stroke:rgb(18.431373%,30.980392%,30.980392%);stroke-opacity:1;stroke-miterlimit:10;" d="M 111.800781 75.527344 C 111.800781 81.613281 106.863281 86.550781 100.773438 86.550781 C 94.6875 86.550781 89.75 81.613281 89.75 75.527344 C 89.75 69.4375 94.6875 64.5 100.773438 64.5 C 106.863281 64.5 111.800781 69.4375 111.800781 75.527344 "/>
<path style="fill-rule:nonzero;fill:rgb(18.431373%,30.980392%,30.980392%);fill-opacity:1;stroke-width:0.708661;stroke-linecap:round;stroke-linejoin:round;stroke:rgb(18.431373%,30.980392%,30.980392%);stroke-opacity:1;stroke-miterlimit:10;" d="M 189.339844 75.527344 C 189.339844 81.613281 184.40625 86.550781 178.316406 86.550781 C 172.226563 86.550781 167.292969 81.613281 167.292969 75.527344 C 167.292969 69.4375 172.226563 64.5 178.316406 64.5 C 184.40625 64.5 189.339844 69.4375 189.339844 75.527344 "/>
<path style="fill-rule:nonzero;fill:rgb(18.431373%,30.980392%,30.980392%);fill-opacity:1;stroke-width:0.708661;stroke-linecap:round;stroke-linejoin:round;stroke:rgb(18.431373%,30.980392%,30.980392%);stroke-opacity:1;stroke-miterlimit:10;" d="M 266.882813 75.527344 C 266.882813 81.613281 261.945313 86.550781 255.859375 86.550781 C 249.769531 86.550781 244.832031 81.613281 244.832031 75.527344 C 244.832031 69.4375 249.769531 64.5 255.859375 64.5 C 261.945313 64.5 266.882813 69.4375 266.882813 75.527344 "/>
<path style="fill-rule:nonzero;fill:rgb(18.431373%,30.980392%,30.980392%);fill-opacity:1;stroke-width:0.708661;stroke-linecap:round;stroke-linejoin:round;stroke:rgb(18.431373%,30.980392%,30.980392%);stroke-opacity:1;stroke-miterlimit:10;" d="M 344.421875 75.527344 C 344.421875 81.613281 339.488281 86.550781 333.398438 86.550781 C 327.3125 86.550781 322.375 81.613281 322.375 75.527344 C 322.375 69.4375 327.3125 64.5 333.398438 64.5 C 339.488281 64.5 344.421875 69.4375 344.421875 75.527344 "/>
<path style="fill-rule:nonzero;fill:rgb(18.431373%,30.980392%,30.980392%);fill-opacity:1;stroke-width:0.708661;stroke-linecap:round;stroke-linejoin:round;stroke:rgb(18.431373%,30.980392%,30.980392%);stroke-opacity:1;stroke-miterlimit:10;" d="M 421.964844 75.527344 C 421.964844 81.613281 417.027344 86.550781 410.941406 86.550781 C 404.851563 86.550781 399.917969 81.613281 399.917969 75.527344 C 399.917969 69.4375 404.851563 64.5 410.941406 64.5 C 417.027344 64.5 421.964844 69.4375 421.964844 75.527344 "/>
<path style="fill-rule:nonzero;fill:rgb(18.431373%,30.980392%,30.980392%);fill-opacity:1;stroke-width:0.708661;stroke-linecap:round;stroke-linejoin:round;stroke:rgb(18.431373%,30.980392%,30.980392%);stroke-opacity:1;stroke-miterlimit:10;" d="M 499.507813 75.527344 C 499.507813 81.613281 494.570313 86.550781 488.480469 86.550781 C 482.394531 86.550781 477.457031 81.613281 477.457031 75.527344 C 477.457031 69.4375 482.394531 64.5 488.480469 64.5 C 494.570313 64.5 499.507813 69.4375 499.507813 75.527344 "/>
<path style="fill-rule:nonzero;fill:rgb(18.431373%,30.980392%,30.980392%);fill-opacity:1;stroke-width:0.708661;stroke-linecap:round;stroke-linejoin:round;stroke:rgb(18.431373%,30.980392%,30.980392%);stroke-opacity:1;stroke-miterlimit:10;" d="M 577.046875 75.527344 C 577.046875 81.613281 572.113281 86.550781 566.023438 86.550781 C 559.933594 86.550781 555 81.613281 555 75.527344 C 555 69.4375 559.933594 64.5 566.023438 64.5 C 572.113281 64.5 577.046875 69.4375 577.046875 75.527344 "/>
<path style="fill-rule:nonzero;fill:rgb(18.431373%,30.980392%,30.980392%);fill-opacity:1;stroke-width:0.708661;stroke-linecap:round;stroke-linejoin:round;stroke:rgb(18.431373%,30.980392%,30.980392%);stroke-opacity:1;stroke-miterlimit:10;" d="M 654.589844 75.527344 C 654.589844 81.613281 649.652344 86.550781 643.566406 86.550781 C 637.476563 86.550781 632.539063 81.613281 632.539063 75.527344 C 632.539063 69.4375 637.476563 64.5 643.566406 64.5 C 649.652344 64.5 654.589844 69.4375 654.589844 75.527344 "/>
<path style="fill-rule:nonzero;fill:rgb(18.431373%,30.980392%,30.980392%);fill-opacity:1;stroke-width:0.708661;stroke-linecap:round;stroke-linejoin:round;stroke:rgb(18.431373%,30.980392%,30.980392%);stroke-opacity:1;stroke-miterlimit:10;" d="M 732.128906 75.527344 C 732.128906 81.613281 727.195313 86.550781 721.105469 86.550781 C 715.019531 86.550781 710.082031 81.613281 710.082031 75.527344 C 710.082031 69.4375 715.019531 64.5 721.105469 64.5 C 727.195313 64.5 732.128906 69.4375 732.128906 75.527344 "/>
<path style="fill-rule:nonzero;fill:rgb(18.431373%,30.980392%,30.980392%);fill-opacity:1;stroke-width:0.708661;stroke-linecap:round;stroke-linejoin:round;stroke:rgb(18.431373%,30.980392%,30.980392%);stroke-opacity:1;stroke-miterlimit:10;" d="M 34.257813 23.4375 C 34.257813 29.527344 29.320313 34.464844 23.234375 34.464844 C 17.144531 34.464844 12.210938 29.527344 12.210938 23.4375 C 12.210938 17.351563 17.144531 12.414063 23.234375 12.414063 C 29.320313 12.414063 34.257813 17.351563 34.257813 23.4375 "/>
<path style="fill-rule:nonzero;fill:rgb(18.431373%,30.980392%,30.980392%);fill-opacity:1;stroke-width:0.708661;stroke-linecap:round;stroke-linejoin:round;stroke:rgb(18.431373%,30.980392%,30.980392%);stroke-opacity:1;stroke-miterlimit:10;" d="M 111.800781 23.4375 C 111.800781 29.527344 106.863281 34.464844 100.773438 34.464844 C 94.6875 34.464844 89.75 29.527344 89.75 23.4375 C 89.75 17.351563 94.6875 12.414063 100.773438 12.414063 C 106.863281 12.414063 111.800781 17.351563 111.800781 23.4375 "/>
<path style="fill-rule:nonzero;fill:rgb(18.431373%,30.980392%,30.980392%);fill-opacity:1;stroke-width:0.708661;stroke-linecap:round;stroke-linejoin:round;stroke:rgb(18.431373%,30.980392%,30.980392%);stroke-opacity:1;stroke-miterlimit:10;" d="M 189.339844 23.4375 C 189.339844 29.527344 184.40625 34.464844 178.316406 34.464844 C 172.226563 34.464844 167.292969 29.527344 167.292969 23.4375 C 167.292969 17.351563 172.226563 12.414063 178.316406 12.414063 C 184.40625 12.414063 189.339844 17.351563 189.339844 23.4375 "/>
<path style="fill-rule:nonzero;fill:rgb(18.431373%,30.980392%,30.980392%);fill-opacity:1;stroke-width:0.708661;stroke-linecap:round;stroke-linejoin:round;stroke:rgb(18.431373%,30.980392%,30.980392%);stroke-opacity:1;stroke-miterlimit:10;" d="M 266.882813 23.4375 C 266.882813 29.527344 261.945313 34.464844 255.859375 34.464844 C 249.769531 34.464844 244.832031 29.527344 244.832031 23.4375 C 244.832031 17.351563 249.769531 12.414063 255.859375 12.414063 C 261.945313 12.414063 266.882813 17.351563 266.882813 23.4375 "/>
<path style="fill-rule:nonzero;fill:rgb(18.431373%,30.980392%,30.980392%);fill-opacity:1;stroke-width:0.708661;stroke-linecap:round;stroke-linejoin:round;stroke:rgb(18.431373%,30.980392%,30.980392%);stroke-opacity:1;stroke-miterlimit:10;" d="M 344.421875 23.4375 C 344.421875 29.527344 339.488281 34.464844 333.398438 34.464844 C 327.3125 34.464844 322.375 29.527344 322.375 23.4375 C 322.375 17.351563 327.3125 12.414063 333.398438 12.414063 C 339.488281 12.414063 344.421875 17.351563 344.421875 23.4375 "/>
<path style="fill-rule:nonzero;fill:rgb(18.431373%,30.980392%,30.980392%);fill-opacity:1;stroke-width:0.708661;stroke-linecap:round;stroke-linejoin:round;stroke:rgb(18.431373%,30.980392%,30.980392%);stroke-opacity:1;stroke-miterlimit:10;" d="M 421.964844 23.4375 C 421.964844 29.527344 417.027344 34.464844 410.941406 34.464844 C 404.851563 34.464844 399.917969 29.527344 399.917969 23.4375 C 399.917969 17.351563 404.851563 12.414063 410.941406 12.414063 C 417.027344 12.414063 421.964844 17.351563 421.964844 23.4375 "/>
<path style="fill-rule:nonzero;fill:rgb(18.431373%,30.980392%,30.980392%);fill-opacity:1;stroke-width:0.708661;stroke-linecap:round;stroke-linejoin:round;stroke:rgb(18.431373%,30.980392%,30.980392%);stroke-opacity:1;stroke-miterlimit:10;" d="M 499.507813 23.4375 C 499.507813 29.527344 494.570313 34.464844 488.480469 34.464844 C 482.394531 34.464844 477.457031 29.527344 477.457031 23.4375 C 477.457031 17.351563 482.394531 12.414063 488.480469 12.414063 C 494.570313 12.414063 499.507813 17.351563 499.507813 23.4375 "/>
<path style="fill-rule:nonzero;fill:rgb(18.431373%,30.980392%,30.980392%);fill-opacity:1;stroke-width:0.708661;stroke-linecap:round;stroke-linejoin:round;stroke:rgb(18.431373%,30.980392%,30.980392%);stroke-opacity:1;stroke-miterlimit:10;" d="M 577.046875 23.4375 C 577.046875 29.527344 572.113281 34.464844 566.023438 34.464844 C 559.933594 34.464844 555 29.527344 555 23.4375 C 555 17.351563 559.933594 12.414063 566.023438 12.414063 C 572.113281 12.414063 577.046875 17.351563 577.046875 23.4375 "/>
<path style="fill-rule:nonzero;fill:rgb(18.431373%,30.980392%,30.980392%);fill-opacity:1;stroke-width:0.708661;stroke-linecap:round;stroke-linejoin:round;stroke:rgb(18.431373%,30.980392%,30.980392%);stroke-opacity:1;stroke-miterlimit:10;" d="M 654.589844 23.4375 C 654.589844 29.527344 649.652344 34.464844 643.566406 34.464844 C 637.476563 34.464844 632.539063 29.527344 632.539063 23.4375 C 632.539063 17.351563 637.476563 12.414063 643.566406 12.414063 C 649.652344 12.414063 654.589844 17.351563 654.589844 23.4375 "/>
<path style="fill-rule:nonzero;fill:rgb(18.431373%,30.980392%,30.980392%);fill-opacity:1;stroke-width:0.708661;stroke-linecap:round;stroke-linejoin:round;stroke:rgb(18.431373%,30.980392%,30.980392%);stroke-opacity:1;stroke-miterlimit:10;" d="M 732.128906 23.4375 C 732.128906 29.527344 727.195313 34.464844 721.105469 34.464844 C 715.019531 34.464844 710.082031 29.527344 710.082031 23.4375 C 710.082031 17.351563 715.019531 12.414063 721.105469 12.414063 C 727.195313 12.414063 732.128906 17.351563 732.128906 23.4375 "/>
</g>
</svg>
